<svg version="1.1" id="Layer_1" xmlns="http://www.w3.org/2000/svg" xmlns:xlink="http://www.w3.org/1999/xlink" x="0px" y="0px"
    width="100%" height="100%" viewBox="0 0 1024 1024" enable-background="new 0 0 1024 1024" xml:space="preserve">
<path fill="#d4af37" opacity="1.000000" stroke="none"
    d="
M374.038910,167.923996
	C391.426208,177.602081 407.964539,188.067596 425.219177,196.951019
	C427.373657,194.653198 426.729797,192.549835 426.735107,190.645248
	C426.791840,170.315582 426.923462,149.984161 426.700775,129.656876
	C426.630280,123.219849 429.089417,119.140747 434.676208,115.987747
	C458.450439,102.570412 482.116821,88.959213 505.703156,75.213821
	C510.574646,72.374847 514.770691,72.194138 519.671692,75.073578
	C543.920959,89.320526 568.250488,103.432205 592.640808,117.436310
	C596.778870,119.812218 598.425598,122.995361 598.423645,127.596840
	C598.415100,148.077362 598.524231,168.557938 598.601746,189.038452
	C598.604919,189.868866 598.713318,190.699295 598.782104,191.528946
	C599.268982,197.402115 600.000671,197.717361 604.949524,194.854843
	C623.106689,184.352264 641.372498,174.035767 659.454346,163.405807
	C664.061951,160.697098 668.107971,160.790237 672.543274,163.366470
	C697.012695,177.579529 721.494995,191.770782 746.022217,205.883682
	C750.267456,208.326355 752.091003,211.961700 752.097107,216.590286
	C752.134521,244.918549 752.105591,273.246918 752.090393,301.575226
	C752.087769,306.552094 749.715820,309.938690 745.404907,312.422607
	C727.081604,322.980347 708.836853,333.674469 690.580078,344.347351
	C689.206055,345.150635 687.390503,345.558014 686.952576,348.140045
	C695.673950,354.117462 705.246887,359.098358 714.549377,364.510284
	C724.769287,370.455933 735.046021,376.303741 745.303406,382.184753
	C750.086548,384.927124 752.218262,389.009888 752.197876,394.546204
	C752.096619,422.041107 752.072815,449.536530 752.123901,477.031555
	C752.134399,482.706848 750.155884,486.645660 744.964111,489.593719
	C720.351807,503.569580 695.912598,517.850037 671.405212,532.010864
	C667.565918,534.229309 663.889709,533.834778 660.076538,531.627563
	C641.775024,521.033997 623.413391,510.543976 605.060425,500.039459
	C603.512817,499.153656 602.146790,497.786224 599.698608,497.898865
	C598.152222,502.273743 598.641724,506.997253 598.734802,511.469360
	C599.126465,530.283325 598.585205,549.081299 598.423462,567.886108
	C598.386169,572.223389 596.659058,575.173645 593.023682,577.261353
	C568.623718,591.273193 544.205933,605.254333 519.857300,619.354980
	C515.084106,622.119202 510.771545,622.405396 505.833710,619.527344
	C481.524536,605.358643 457.107056,591.375427 432.694580,577.384705
	C428.002899,574.695923 426.896698,570.535645 426.910553,565.546570
	C426.966583,545.383606 426.919434,525.220215 426.848969,505.057220
	C426.841034,502.788330 427.348114,500.401428 425.609375,497.509552
	C419.720306,500.754974 413.805023,503.914429 407.985779,507.241852
	C393.962494,515.260376 379.948608,523.296753 366.008850,531.458984
	C361.675201,533.996460 357.730835,534.031250 353.356842,531.483337
	C329.184937,517.402893 304.978699,503.379730 280.680939,489.517975
	C275.770142,486.716400 273.654846,483.053345 273.681488,477.406769
	C273.812744,449.578888 273.786591,421.749512 273.635223,393.921661
	C273.605743,388.502136 275.520508,384.844177 280.288971,382.135223
	C298.378601,371.858521 316.345367,361.365631 334.360718,350.958069
	C335.783569,350.136047 337.408630,349.581116 338.359680,347.692535
	C337.441376,345.232941 334.901886,344.411865 332.868835,343.210724
	C315.526855,332.964935 298.194977,322.697998 280.703674,312.711395
	C275.776031,309.897949 273.644012,306.271057 273.670471,300.635437
	C273.801178,272.807495 273.781677,244.978317 273.661285,217.150223
	C273.638184,211.804260 275.357452,207.970474 280.151154,205.233582
	C303.570892,191.862427 327.012512,178.522064 350.192871,164.744232
	C356.714752,160.867798 362.389984,160.114212 368.575226,164.676605
	C370.173798,165.855743 372.004608,166.720062 374.038910,167.923996
M468.652649,155.923996
	C461.503082,151.788849 454.627167,147.139938 446.730835,143.707703
	C445.216278,148.040070 445.378784,152.015610 445.396515,155.957291
	C445.491608,177.108902 446.126953,198.272964 445.602234,219.408569
	C444.998383,243.730927 446.561371,268.027740 445.738129,292.333710
	C445.595734,296.538177 447.518372,298.900604 451.123352,300.933777
	C466.763336,309.754608 482.254364,318.840057 497.775269,327.871033
	C502.075409,330.373108 503.547180,329.585876 503.552612,324.163452
	C503.600250,276.515533 503.569000,228.867493 503.611115,181.219559
	C503.614075,177.892960 502.468567,175.582489 499.494049,173.884369
	C489.375977,168.108063 479.350922,162.168732 468.652649,155.923996
M546.823914,444.629120
	C583.020447,465.475647 619.216980,486.322205 655.347534,507.130768
	C657.085510,504.542389 656.677185,502.831238 656.680176,501.205505
	C656.707581,486.207581 656.696777,471.209564 656.695068,456.211578
	C656.693298,441.018158 656.626465,441.132782 643.587524,433.643585
	C605.325317,411.667023 567.125854,389.581116 528.875549,367.583771
	C527.086792,366.555084 525.509766,364.759277 523.218201,365.197845
	C522.106201,365.998505 522.196167,367.048553 522.196594,368.027283
	C522.205078,387.524139 522.257812,407.021057 522.217224,426.517792
	C522.211243,429.393250 523.492432,431.113037 525.892517,432.476624
	C532.695251,436.341675 539.422302,440.340118 546.823914,444.629120
M522.123047,194.501266
	C522.144348,237.784744 522.162537,281.068237 522.199097,324.351715
	C522.200500,325.963013 521.571655,327.923309 523.223816,328.979950
	C525.207764,330.248779 526.607666,328.336456 528.098511,327.477173
	C543.370483,318.674988 558.489685,309.596313 573.947327,301.135071
	C578.386597,298.705048 580.055237,296.132172 580.038269,291.121979
	C579.877197,243.677109 579.959961,196.231445 579.945312,148.786011
	C579.944824,147.192108 580.404114,145.446716 578.984558,144.002960
	C576.895386,143.994995 575.268860,145.244934 573.593628,146.208298
	C559.462646,154.334915 545.522583,162.811066 531.186951,170.556259
	C524.635437,174.095917 520.646118,178.117264 522.072815,186.023315
	C522.509094,188.440811 522.131226,191.005249 522.123047,194.501266
M420.303680,411.876160
	C404.438751,421.007202 388.608063,430.198853 372.676208,439.211639
	C369.912720,440.774994 369.182648,442.784515 369.193420,445.710022
	C369.261566,464.205750 369.198761,482.701904 369.244019,501.197754
	C369.248260,502.932983 368.677582,504.912811 370.354675,506.273529
	C371.722717,506.581299 372.637543,505.768250 373.630432,505.195099
	C415.580231,480.977905 457.518616,456.740845 499.500641,432.579620
	C502.533325,430.834229 503.554108,428.302124 503.559204,425.139526
	C503.589142,406.643799 503.631561,388.147675 503.531982,369.652405
	C503.508270,365.243744 502.114441,364.522736 498.326752,366.708771
	C472.511902,381.607452 446.725586,396.555573 420.303680,411.876160
M633.037842,339.525879
	C620.074402,332.020691 607.026550,324.655426 594.200439,316.922455
	C590.500671,314.691864 587.734436,314.971191 584.163757,317.079712
	C568.395386,326.391022 552.467346,335.431824 536.607422,344.588440
	C535.356018,345.310944 533.775818,345.768738 533.602417,347.627563
	C534.152405,349.236267 535.705750,349.644714 536.973145,350.373230
	C555.433472,360.984497 573.925476,371.540588 592.358521,382.199005
	C615.690063,395.689972 638.995605,409.226471 662.250488,422.848999
	C664.834839,424.362885 666.799194,424.617584 669.524658,423.000275
	C680.687317,416.376343 692.035278,410.065857 703.266846,403.556763
	C709.665649,399.848450 715.971436,395.979614 723.476624,391.490814
	C692.760193,373.837799 663.220459,356.861084 633.037842,339.525879
M398.039886,402.489502
	C429.527832,384.393463 461.015808,366.297394 493.010162,347.910339
	C491.570587,346.597748 491.053040,345.930511 490.376251,345.537231
	C473.256226,335.590057 456.099792,325.705322 439.008026,315.709930
	C436.586029,314.293518 434.728851,314.870331 432.565521,316.158569
	C422.846283,321.946503 413.097717,327.687073 403.296204,333.334534
	C373.020233,350.779053 342.680298,368.113190 312.476349,385.681335
	C309.501984,387.411407 305.677277,388.303558 303.651917,391.920349
	C304.747925,392.789520 305.568634,393.620026 306.542938,394.186310
	C323.361603,403.961975 340.221832,413.666504 357.004028,423.504211
	C359.104401,424.735413 360.625397,424.330841 362.490967,423.231750
	C374.100311,416.392242 385.753723,409.627502 398.039886,402.489502
M503.660675,588.170166
	C503.660675,543.506165 503.660675,498.842102 503.660675,453.960052
	C501.689301,454.152924 501.133545,454.060486 500.732483,454.267639
	C482.830139,463.514740 465.744171,474.196106 448.252716,484.166046
	C446.120117,485.381592 445.645416,487.200287 445.651611,489.624634
	C445.687744,503.754669 445.512787,517.885132 445.442841,532.015625
	C445.400787,540.509827 445.325134,549.005798 445.463440,557.497803
	C445.511536,560.452759 445.871338,563.276184 449.113739,565.114136
	C462.574066,572.744080 475.811493,580.769775 489.323761,588.304138
	C493.576141,590.675232 497.427277,594.069763 502.568329,595.000854
	C504.000916,593.052917 503.551910,591.002197 503.660675,588.170166
M561.547241,474.998077
	C548.838440,467.674896 536.129639,460.351715 522.718018,452.623535
	C522.718018,501.028717 522.718018,547.974976 522.718018,594.880859
	C525.191223,595.082031 526.633179,594.095764 528.028137,593.284180
	C544.435608,583.737915 560.788025,574.096863 577.199463,564.557373
	C579.637268,563.140320 579.941711,561.057373 579.939209,558.618652
	C579.916321,535.952698 579.846985,513.286255 579.994019,490.621216
	C580.019226,486.727417 578.501282,484.459290 575.215637,482.732056
	C570.798279,480.409882 566.531860,477.800293 561.547241,474.998077
M382.432281,283.134155
	C354.501007,266.930176 326.570953,250.724060 298.637360,234.524078
	C293.382874,231.476746 292.333679,232.044861 292.325500,238.047562
	C292.301178,255.872070 292.436005,273.698029 292.227692,291.520142
	C292.176270,295.920166 293.678772,298.546997 297.492950,300.704498
	C317.467773,312.003662 337.349548,323.468689 357.180969,335.018097
	C359.379120,336.298279 360.772980,335.671082 362.599884,334.615845
	C376.001495,326.875336 389.500153,319.301422 402.845795,311.466400
	C407.082825,308.978882 411.696655,306.972443 416.045898,302.745544
	C404.784607,296.143463 393.944061,289.788025 382.432281,283.134155
M398.807892,270.643799
	C407.682770,275.698517 416.557648,280.753235 425.081421,285.607971
	C426.809296,284.466492 426.721222,283.405121 426.721436,282.432190
	C426.725708,262.954773 426.683777,243.477295 426.726685,224.000000
	C426.733612,220.857910 425.004578,219.326828 422.502716,217.884613
	C402.908600,206.589462 383.351044,195.230087 363.850372,183.774460
	C360.920990,182.053604 358.506775,181.959152 355.539581,183.717880
	C344.237122,190.417221 332.757385,196.817627 321.457977,203.521942
	C315.524384,207.042511 309.181458,209.950104 302.701935,214.979858
	C335.058319,233.717575 366.617950,251.993912 398.807892,270.643799
M682.050964,190.495804
	C678.143982,188.273300 674.178284,186.146439 670.348572,183.797882
	C667.304138,181.930832 664.720581,182.101547 661.571045,183.951096
	C642.059692,195.409134 622.457825,206.714828 602.799072,217.918488
	C599.604919,219.738831 598.645508,221.872543 598.694275,225.542145
	C598.915283,242.174149 598.744019,258.811310 598.719299,275.446625
	C598.714478,278.712219 598.472107,282.013824 600.144775,285.977875
	C640.931152,262.438385 681.401367,239.081406 721.871521,215.724411
	C721.923828,215.089172 721.976074,214.453918 722.028381,213.818665
	C708.906677,206.179520 695.784973,198.540359 682.050964,190.495804
M613.187561,300.626831
	C612.178650,301.579895 610.328918,301.904602 610.782715,304.460815
	C628.646179,314.766449 646.793335,325.221863 664.915344,335.720612
	C666.176819,336.451416 667.026062,335.995636 668.094299,335.376099
	C688.679077,323.437408 709.270081,311.509369 729.899231,299.647614
	C732.529419,298.135254 733.517151,296.134247 733.483215,293.128265
	C733.265381,273.815216 733.180786,254.500687 733.025574,235.186859
	C733.016724,234.085953 733.270264,232.777771 731.523804,232.114243
	C730.538025,232.633194 729.356506,233.201889 728.225952,233.858383
	C712.828430,242.799042 697.446289,251.766159 682.043823,260.698303
	C659.296204,273.889984 636.535400,287.058960 613.187561,300.626831
M520.607422,155.077713
	C536.616394,145.539307 553.134827,136.835342 569.091980,126.584648
	C568.014282,125.351006 567.680481,124.706535 567.151001,124.400856
	C549.722534,114.338425 532.259705,104.335487 514.850769,94.239487
	C512.672668,92.976349 511.169647,93.900810 509.375671,94.933968
	C493.089691,104.313049 476.766479,113.627556 460.465271,122.980293
	C459.050476,123.792030 457.457123,124.480446 456.997955,126.343071
	C457.423950,127.811119 458.721497,128.266083 459.861694,128.924362
	C475.130463,137.739960 490.528961,146.343277 505.581512,155.514236
	C510.804352,158.696335 515.181824,159.471451 520.607422,155.077713
M721.971741,414.500397
	C709.017395,422.004028 696.226746,429.813843 683.031982,436.867767
	C677.372864,439.893097 675.276428,443.751038 675.346619,449.885376
	C675.542603,467.028015 675.384338,484.174561 675.419983,501.319458
	C675.423584,503.041962 674.883362,505.063202 676.934814,506.188568
	C678.783203,506.259003 680.094055,505.124146 681.508362,504.308685
	C696.490356,495.669708 711.263000,486.638000 726.529968,478.537628
	C732.310242,475.470703 733.849365,471.407349 733.533081,465.788513
	C732.568481,448.655243 733.299744,431.508118 732.975891,414.371002
	C732.945679,412.774689 733.431946,411.002838 731.649353,409.543518
	C728.308411,410.251129 725.669250,412.627502 721.971741,414.500397
M292.405670,471.640564
	C292.761871,474.653931 294.880493,476.103333 297.287689,477.483551
	C307.530090,483.356171 317.571869,489.596252 327.972168,495.169891
	C334.913300,498.889740 341.264618,503.824158 348.664093,506.235931
	C349.961639,505.269653 349.920319,504.211212 349.919952,503.244843
	C349.912567,483.772949 349.833466,464.300873 349.894165,444.829285
	C349.904236,441.600128 348.062897,440.103394 345.645538,438.712494
	C332.385071,431.082855 319.153381,423.403198 305.901367,415.758850
	C302.084869,413.557281 298.233765,411.415741 293.250092,408.597198
	C291.522827,430.077820 292.648865,450.456757 292.405670,471.640564
z"/>
</svg>