<svg version="1.1" id="Layer_1" xmlns="http://www.w3.org/2000/svg" xmlns:xlink="http://www.w3.org/1999/xlink" x="0px" y="0px"
    width="100%" viewBox="0 0 1024 1024" enable-background="new 0 0 1024 1024" xml:space="preserve">
<path fill="#ffffff" opacity="1.000000" stroke="none"
    d="
M374.038910,167.923996
	C391.426208,177.602081 407.964539,188.067596 425.219177,196.951019
	C427.373657,194.653198 426.729797,192.549835 426.735107,190.645248
	C426.791840,170.315582 426.923462,149.984161 426.700775,129.656876
	C426.630280,123.219849 429.089417,119.140747 434.676208,115.987747
	C458.450439,102.570412 482.116821,88.959213 505.703156,75.213821
	C510.574646,72.374847 514.770691,72.194138 519.671692,75.073578
	C543.920959,89.320526 568.250488,103.432205 592.640808,117.436310
	C596.778870,119.812218 598.425598,122.995361 598.423645,127.596840
	C598.415100,148.077362 598.524231,168.557938 598.601746,189.038452
	C598.604919,189.868866 598.713318,190.699295 598.782104,191.528946
	C599.268982,197.402115 600.000671,197.717361 604.949524,194.854843
	C623.106689,184.352264 641.372498,174.035767 659.454346,163.405807
	C664.061951,160.697098 668.107971,160.790237 672.543274,163.366470
	C697.012695,177.579529 721.494995,191.770782 746.022217,205.883682
	C750.267456,208.326355 752.091003,211.961700 752.097107,216.590286
	C752.134521,244.918549 752.105591,273.246918 752.090393,301.575226
	C752.087769,306.552094 749.715820,309.938690 745.404907,312.422607
	C727.081604,322.980347 708.836853,333.674469 690.580078,344.347351
	C689.206055,345.150635 687.390503,345.558014 686.952576,348.140045
	C695.673950,354.117462 705.246887,359.098358 714.549377,364.510284
	C724.769287,370.455933 735.046021,376.303741 745.303406,382.184753
	C750.086548,384.927124 752.218262,389.009888 752.197876,394.546204
	C752.096619,422.041107 752.072815,449.536530 752.123901,477.031555
	C752.134399,482.706848 750.155884,486.645660 744.964111,489.593719
	C720.351807,503.569580 695.912598,517.850037 671.405212,532.010864
	C667.565918,534.229309 663.889709,533.834778 660.076538,531.627563
	C641.775024,521.033997 623.413391,510.543976 605.060425,500.039459
	C603.512817,499.153656 602.146790,497.786224 599.698608,497.898865
	C598.152222,502.273743 598.641724,506.997253 598.734802,511.469360
	C599.126465,530.283325 598.585205,549.081299 598.423462,567.886108
	C598.386169,572.223389 596.659058,575.173645 593.023682,577.261353
	C568.623718,591.273193 544.205933,605.254333 519.857300,619.354980
	C515.084106,622.119202 510.771545,622.405396 505.833710,619.527344
	C481.524536,605.358643 457.107056,591.375427 432.694580,577.384705
	C428.002899,574.695923 426.896698,570.535645 426.910553,565.546570
	C426.966583,545.383606 426.919434,525.220215 426.848969,505.057220
	C426.841034,502.788330 427.348114,500.401428 425.609375,497.509552
	C419.720306,500.754974 413.805023,503.914429 407.985779,507.241852
	C393.962494,515.260376 379.948608,523.296753 366.008850,531.458984
	C361.675201,533.996460 357.730835,534.031250 353.356842,531.483337
	C329.184937,517.402893 304.978699,503.379730 280.680939,489.517975
	C275.770142,486.716400 273.654846,483.053345 273.681488,477.406769
	C273.812744,449.578888 273.786591,421.749512 273.635223,393.921661
	C273.605743,388.502136 275.520508,384.844177 280.288971,382.135223
	C298.378601,371.858521 316.345367,361.365631 334.360718,350.958069
	C335.783569,350.136047 337.408630,349.581116 338.359680,347.692535
	C337.441376,345.232941 334.901886,344.411865 332.868835,343.210724
	C315.526855,332.964935 298.194977,322.697998 280.703674,312.711395
	C275.776031,309.897949 273.644012,306.271057 273.670471,300.635437
	C273.801178,272.807495 273.781677,244.978317 273.661285,217.150223
	C273.638184,211.804260 275.357452,207.970474 280.151154,205.233582
	C303.570892,191.862427 327.012512,178.522064 350.192871,164.744232
	C356.714752,160.867798 362.389984,160.114212 368.575226,164.676605
	C370.173798,165.855743 372.004608,166.720062 374.038910,167.923996
M468.652649,155.923996
	C461.503082,151.788849 454.627167,147.139938 446.730835,143.707703
	C445.216278,148.040070 445.378784,152.015610 445.396515,155.957291
	C445.491608,177.108902 446.126953,198.272964 445.602234,219.408569
	C444.998383,243.730927 446.561371,268.027740 445.738129,292.333710
	C445.595734,296.538177 447.518372,298.900604 451.123352,300.933777
	C466.763336,309.754608 482.254364,318.840057 497.775269,327.871033
	C502.075409,330.373108 503.547180,329.585876 503.552612,324.163452
	C503.600250,276.515533 503.569000,228.867493 503.611115,181.219559
	C503.614075,177.892960 502.468567,175.582489 499.494049,173.884369
	C489.375977,168.108063 479.350922,162.168732 468.652649,155.923996
M546.823914,444.629120
	C583.020447,465.475647 619.216980,486.322205 655.347534,507.130768
	C657.085510,504.542389 656.677185,502.831238 656.680176,501.205505
	C656.707581,486.207581 656.696777,471.209564 656.695068,456.211578
	C656.693298,441.018158 656.626465,441.132782 643.587524,433.643585
	C605.325317,411.667023 567.125854,389.581116 528.875549,367.583771
	C527.086792,366.555084 525.509766,364.759277 523.218201,365.197845
	C522.106201,365.998505 522.196167,367.048553 522.196594,368.027283
	C522.205078,387.524139 522.257812,407.021057 522.217224,426.517792
	C522.211243,429.393250 523.492432,431.113037 525.892517,432.476624
	C532.695251,436.341675 539.422302,440.340118 546.823914,444.629120
M522.123047,194.501266
	C522.144348,237.784744 522.162537,281.068237 522.199097,324.351715
	C522.200500,325.963013 521.571655,327.923309 523.223816,328.979950
	C525.207764,330.248779 526.607666,328.336456 528.098511,327.477173
	C543.370483,318.674988 558.489685,309.596313 573.947327,301.135071
	C578.386597,298.705048 580.055237,296.132172 580.038269,291.121979
	C579.877197,243.677109 579.959961,196.231445 579.945312,148.786011
	C579.944824,147.192108 580.404114,145.446716 578.984558,144.002960
	C576.895386,143.994995 575.268860,145.244934 573.593628,146.208298
	C559.462646,154.334915 545.522583,162.811066 531.186951,170.556259
	C524.635437,174.095917 520.646118,178.117264 522.072815,186.023315
	C522.509094,188.440811 522.131226,191.005249 522.123047,194.501266
M420.303680,411.876160
	C404.438751,421.007202 388.608063,430.198853 372.676208,439.211639
	C369.912720,440.774994 369.182648,442.784515 369.193420,445.710022
	C369.261566,464.205750 369.198761,482.701904 369.244019,501.197754
	C369.248260,502.932983 368.677582,504.912811 370.354675,506.273529
	C371.722717,506.581299 372.637543,505.768250 373.630432,505.195099
	C415.580231,480.977905 457.518616,456.740845 499.500641,432.579620
	C502.533325,430.834229 503.554108,428.302124 503.559204,425.139526
	C503.589142,406.643799 503.631561,388.147675 503.531982,369.652405
	C503.508270,365.243744 502.114441,364.522736 498.326752,366.708771
	C472.511902,381.607452 446.725586,396.555573 420.303680,411.876160
M633.037842,339.525879
	C620.074402,332.020691 607.026550,324.655426 594.200439,316.922455
	C590.500671,314.691864 587.734436,314.971191 584.163757,317.079712
	C568.395386,326.391022 552.467346,335.431824 536.607422,344.588440
	C535.356018,345.310944 533.775818,345.768738 533.602417,347.627563
	C534.152405,349.236267 535.705750,349.644714 536.973145,350.373230
	C555.433472,360.984497 573.925476,371.540588 592.358521,382.199005
	C615.690063,395.689972 638.995605,409.226471 662.250488,422.848999
	C664.834839,424.362885 666.799194,424.617584 669.524658,423.000275
	C680.687317,416.376343 692.035278,410.065857 703.266846,403.556763
	C709.665649,399.848450 715.971436,395.979614 723.476624,391.490814
	C692.760193,373.837799 663.220459,356.861084 633.037842,339.525879
M398.039886,402.489502
	C429.527832,384.393463 461.015808,366.297394 493.010162,347.910339
	C491.570587,346.597748 491.053040,345.930511 490.376251,345.537231
	C473.256226,335.590057 456.099792,325.705322 439.008026,315.709930
	C436.586029,314.293518 434.728851,314.870331 432.565521,316.158569
	C422.846283,321.946503 413.097717,327.687073 403.296204,333.334534
	C373.020233,350.779053 342.680298,368.113190 312.476349,385.681335
	C309.501984,387.411407 305.677277,388.303558 303.651917,391.920349
	C304.747925,392.789520 305.568634,393.620026 306.542938,394.186310
	C323.361603,403.961975 340.221832,413.666504 357.004028,423.504211
	C359.104401,424.735413 360.625397,424.330841 362.490967,423.231750
	C374.100311,416.392242 385.753723,409.627502 398.039886,402.489502
M503.660675,588.170166
	C503.660675,543.506165 503.660675,498.842102 503.660675,453.960052
	C501.689301,454.152924 501.133545,454.060486 500.732483,454.267639
	C482.830139,463.514740 465.744171,474.196106 448.252716,484.166046
	C446.120117,485.381592 445.645416,487.200287 445.651611,489.624634
	C445.687744,503.754669 445.512787,517.885132 445.442841,532.015625
	C445.400787,540.509827 445.325134,549.005798 445.463440,557.497803
	C445.511536,560.452759 445.871338,563.276184 449.113739,565.114136
	C462.574066,572.744080 475.811493,580.769775 489.323761,588.304138
	C493.576141,590.675232 497.427277,594.069763 502.568329,595.000854
	C504.000916,593.052917 503.551910,591.002197 503.660675,588.170166
M561.547241,474.998077
	C548.838440,467.674896 536.129639,460.351715 522.718018,452.623535
	C522.718018,501.028717 522.718018,547.974976 522.718018,594.880859
	C525.191223,595.082031 526.633179,594.095764 528.028137,593.284180
	C544.435608,583.737915 560.788025,574.096863 577.199463,564.557373
	C579.637268,563.140320 579.941711,561.057373 579.939209,558.618652
	C579.916321,535.952698 579.846985,513.286255 579.994019,490.621216
	C580.019226,486.727417 578.501282,484.459290 575.215637,482.732056
	C570.798279,480.409882 566.531860,477.800293 561.547241,474.998077
M382.432281,283.134155
	C354.501007,266.930176 326.570953,250.724060 298.637360,234.524078
	C293.382874,231.476746 292.333679,232.044861 292.325500,238.047562
	C292.301178,255.872070 292.436005,273.698029 292.227692,291.520142
	C292.176270,295.920166 293.678772,298.546997 297.492950,300.704498
	C317.467773,312.003662 337.349548,323.468689 357.180969,335.018097
	C359.379120,336.298279 360.772980,335.671082 362.599884,334.615845
	C376.001495,326.875336 389.500153,319.301422 402.845795,311.466400
	C407.082825,308.978882 411.696655,306.972443 416.045898,302.745544
	C404.784607,296.143463 393.944061,289.788025 382.432281,283.134155
M398.807892,270.643799
	C407.682770,275.698517 416.557648,280.753235 425.081421,285.607971
	C426.809296,284.466492 426.721222,283.405121 426.721436,282.432190
	C426.725708,262.954773 426.683777,243.477295 426.726685,224.000000
	C426.733612,220.857910 425.004578,219.326828 422.502716,217.884613
	C402.908600,206.589462 383.351044,195.230087 363.850372,183.774460
	C360.920990,182.053604 358.506775,181.959152 355.539581,183.717880
	C344.237122,190.417221 332.757385,196.817627 321.457977,203.521942
	C315.524384,207.042511 309.181458,209.950104 302.701935,214.979858
	C335.058319,233.717575 366.617950,251.993912 398.807892,270.643799
M682.050964,190.495804
	C678.143982,188.273300 674.178284,186.146439 670.348572,183.797882
	C667.304138,181.930832 664.720581,182.101547 661.571045,183.951096
	C642.059692,195.409134 622.457825,206.714828 602.799072,217.918488
	C599.604919,219.738831 598.645508,221.872543 598.694275,225.542145
	C598.915283,242.174149 598.744019,258.811310 598.719299,275.446625
	C598.714478,278.712219 598.472107,282.013824 600.144775,285.977875
	C640.931152,262.438385 681.401367,239.081406 721.871521,215.724411
	C721.923828,215.089172 721.976074,214.453918 722.028381,213.818665
	C708.906677,206.179520 695.784973,198.540359 682.050964,190.495804
M613.187561,300.626831
	C612.178650,301.579895 610.328918,301.904602 610.782715,304.460815
	C628.646179,314.766449 646.793335,325.221863 664.915344,335.720612
	C666.176819,336.451416 667.026062,335.995636 668.094299,335.376099
	C688.679077,323.437408 709.270081,311.509369 729.899231,299.647614
	C732.529419,298.135254 733.517151,296.134247 733.483215,293.128265
	C733.265381,273.815216 733.180786,254.500687 733.025574,235.186859
	C733.016724,234.085953 733.270264,232.777771 731.523804,232.114243
	C730.538025,232.633194 729.356506,233.201889 728.225952,233.858383
	C712.828430,242.799042 697.446289,251.766159 682.043823,260.698303
	C659.296204,273.889984 636.535400,287.058960 613.187561,300.626831
M520.607422,155.077713
	C536.616394,145.539307 553.134827,136.835342 569.091980,126.584648
	C568.014282,125.351006 567.680481,124.706535 567.151001,124.400856
	C549.722534,114.338425 532.259705,104.335487 514.850769,94.239487
	C512.672668,92.976349 511.169647,93.900810 509.375671,94.933968
	C493.089691,104.313049 476.766479,113.627556 460.465271,122.980293
	C459.050476,123.792030 457.457123,124.480446 456.997955,126.343071
	C457.423950,127.811119 458.721497,128.266083 459.861694,128.924362
	C475.130463,137.739960 490.528961,146.343277 505.581512,155.514236
	C510.804352,158.696335 515.181824,159.471451 520.607422,155.077713
M721.971741,414.500397
	C709.017395,422.004028 696.226746,429.813843 683.031982,436.867767
	C677.372864,439.893097 675.276428,443.751038 675.346619,449.885376
	C675.542603,467.028015 675.384338,484.174561 675.419983,501.319458
	C675.423584,503.041962 674.883362,505.063202 676.934814,506.188568
	C678.783203,506.259003 680.094055,505.124146 681.508362,504.308685
	C696.490356,495.669708 711.263000,486.638000 726.529968,478.537628
	C732.310242,475.470703 733.849365,471.407349 733.533081,465.788513
	C732.568481,448.655243 733.299744,431.508118 732.975891,414.371002
	C732.945679,412.774689 733.431946,411.002838 731.649353,409.543518
	C728.308411,410.251129 725.669250,412.627502 721.971741,414.500397
M292.405670,471.640564
	C292.761871,474.653931 294.880493,476.103333 297.287689,477.483551
	C307.530090,483.356171 317.571869,489.596252 327.972168,495.169891
	C334.913300,498.889740 341.264618,503.824158 348.664093,506.235931
	C349.961639,505.269653 349.920319,504.211212 349.919952,503.244843
	C349.912567,483.772949 349.833466,464.300873 349.894165,444.829285
	C349.904236,441.600128 348.062897,440.103394 345.645538,438.712494
	C332.385071,431.082855 319.153381,423.403198 305.901367,415.758850
	C302.084869,413.557281 298.233765,411.415741 293.250092,408.597198
	C291.522827,430.077820 292.648865,450.456757 292.405670,471.640564
z"/>
    <path fill="#ffffff" opacity="1.000000" stroke="none"
        d="
M595.000183,747.144836
	C540.678528,747.151978 486.856842,747.156250 433.035156,747.161743
	C407.540588,747.164307 382.045654,747.234558 356.551758,747.107727
	C352.381165,747.086975 350.346832,748.082153 349.751587,752.709290
	C348.180939,764.918762 343.612152,775.590027 331.843719,781.566895
	C321.634552,786.751831 310.667877,787.372192 299.670013,785.705688
	C290.543762,784.322754 283.697205,778.633606 279.505493,770.678406
	C268.687531,750.147644 268.606567,729.563477 280.914581,709.478516
	C282.173706,707.423889 283.387634,703.389954 287.196289,706.396729
	C292.370667,710.481628 293.958557,711.253296 290.362122,716.026794
	C284.560547,723.727112 282.599731,732.865173 283.340424,742.500244
	C283.850067,749.129517 289.231445,754.179077 297.112305,755.541748
	C307.931671,757.412354 318.690582,756.233154 329.390747,754.631165
	C334.913666,753.804382 337.446075,750.973694 338.166138,746.113098
	C337.226715,744.855530 335.801666,745.081543 334.515869,745.043640
	C331.851654,744.965210 329.184174,744.982544 326.518066,744.988831
	C305.455231,745.038635 294.750916,732.379883 298.084595,711.384094
	C298.982025,705.731934 300.567291,700.363403 303.854095,695.569702
	C313.937653,680.863037 332.800018,680.964355 342.475647,695.941345
	C347.445923,703.634949 350.252899,712.105042 350.295654,721.375732
	C350.303009,722.973877 350.453735,724.571289 350.544342,726.284607
	C351.921326,725.746948 351.559814,724.800476 351.601593,724.072327
	C351.961761,717.793823 352.771179,716.925903 359.098053,716.919250
	C388.760132,716.888184 418.422302,716.906555 448.084412,716.904541
	C516.406494,716.899902 584.728516,716.903076 653.050598,716.874756
	C660.677002,716.871582 661.621582,715.839233 661.651367,708.158020
	C661.671387,702.992126 661.803528,697.820496 661.606567,692.662109
	C661.460388,688.833679 663.715515,688.075195 666.664673,688.303711
	C669.431580,688.518066 673.135010,687.613892 673.127197,692.394043
	C673.107971,704.206299 673.704590,716.043701 671.151855,727.723694
	C668.228943,741.097595 661.240906,747.129272 647.486694,747.250916
	C630.159546,747.404236 612.829102,747.195129 595.000183,747.144836
M313.658356,708.021484
	C308.161072,713.452148 307.946594,717.872437 313.416595,718.882202
	C321.478363,720.370361 329.709045,720.123962 337.849243,718.685364
	C336.275726,706.897583 326.205780,702.390015 313.658356,708.021484
z"/>
    <path fill="#ffffff" opacity="1.000000" stroke="none"
        d="
M273.786682,904.999939
	C273.791809,882.024414 273.897064,859.547974 273.722351,837.073792
	C273.685516,832.336182 275.200531,830.509338 280.029907,830.708374
	C292.482178,831.221680 304.981323,829.906311 317.408020,831.828064
	C331.038391,833.936035 339.582184,842.542725 340.299255,854.880737
	C340.761047,862.826843 337.651459,868.741272 330.877655,872.816406
	C329.056000,873.912292 326.990845,874.708679 325.871582,876.423706
	C325.897675,878.516785 327.386230,878.693115 328.586700,879.165710
	C340.043030,883.676697 344.874664,889.868774 344.759308,899.905701
	C344.614838,912.476379 338.209045,921.769531 327.196899,925.697815
	C321.907166,927.584778 316.412415,927.743591 310.951172,927.855896
	C300.633209,928.068115 290.305878,927.816406 279.987305,928.013000
	C275.577484,928.096985 273.533142,926.647034 273.751526,921.979187
	C274.007965,916.497559 273.795929,910.993958 273.786682,904.999939
M306.425964,906.942444
	C309.420624,907.002441 312.395874,906.966003 315.193115,905.649048
	C319.051147,903.832703 321.414886,899.321533 320.257660,895.929382
	C318.373535,890.406311 309.548798,886.609314 301.400696,888.414551
	C295.722168,889.672668 299.156677,894.697327 298.264252,897.952271
	C298.095428,898.568054 298.244690,899.271484 298.250397,899.934509
	C298.310211,906.887085 298.310394,906.887085 306.425964,906.942444
M308.964264,852.106506
	C306.648621,852.048279 304.332794,851.942627 302.017365,851.950073
	C300.680420,851.954407 299.017487,852.076599 298.752625,853.615906
	C297.996368,858.011536 296.901703,863.009521 299.214447,866.669189
	C301.069244,869.604248 305.637939,867.742310 309.033173,867.573975
	C309.196503,867.565979 309.362976,867.525024 309.518616,867.471985
	C313.350098,866.165588 315.611786,863.659485 315.748138,859.457031
	C315.883514,855.286255 313.841309,852.955811 308.964264,852.106506
z"/>
    <path fill="#ffffff" opacity="1.000000" stroke="none"
        d="
M751.962280,907.000000
	C751.990784,920.986206 751.906799,934.474182 752.114014,947.957642
	C752.179565,952.221313 750.665161,954.122620 746.364868,953.948242
	C741.876038,953.766113 737.377563,953.721497 732.884949,953.768677
	C729.710876,953.801941 728.450806,952.505249 728.641052,949.265625
	C729.288513,938.245178 727.210571,927.112183 729.725098,915.955750
	C729.259338,916.571228 728.683899,917.131775 728.343933,917.810242
	C720.538879,933.385742 697.272949,934.243835 686.266846,918.491638
	C676.609497,904.669678 676.531860,878.939270 685.686646,864.772827
	C694.797729,850.674133 717.390320,847.281738 727.548096,863.734619
	C728.309998,864.968628 729.293884,866.065552 730.263062,867.342834
	C730.530151,866.778564 730.805237,866.479187 730.744141,866.286194
	C727.081848,854.718933 727.080811,854.600952 739.127869,854.769836
	C752.599426,854.958740 752.061096,852.277344 752.017334,867.539429
	C751.980103,880.526245 751.979370,893.513123 751.962280,907.000000
M725.864502,902.243286
	C729.665649,895.294312 729.658081,888.163452 726.336975,881.150696
	C724.029297,876.278015 720.348206,872.423523 714.542725,872.477356
	C709.168213,872.527039 705.567505,875.875366 703.824890,880.812744
	C701.616699,887.069153 701.356750,893.511047 703.251160,899.932556
	C704.697937,904.836792 707.281616,908.838135 712.784241,909.661926
	C718.577087,910.529053 722.744019,907.918396 725.864502,902.243286
z"/>
    <path fill="#ffffff" opacity="1.000000" stroke="none"
        d="
M400.676331,917.571655
	C400.963348,916.433228 401.171112,915.636597 401.473267,914.478027
	C399.508789,915.421204 399.231964,917.246277 398.380646,918.575378
	C393.247345,926.589844 385.933655,930.609863 376.470856,929.840088
	C367.021515,929.071350 358.996674,925.432861 354.651550,916.292480
	C349.076355,904.564392 355.189606,891.464600 368.330200,886.714722
	C374.046570,884.648499 380.066772,884.418640 386.013306,883.742554
	C388.163513,883.498169 390.320160,883.310608 392.473389,883.092346
	C394.912567,882.845154 397.240387,882.262634 397.755310,879.429565
	C398.308502,876.386230 397.271729,873.777893 394.656189,872.053711
	C389.844330,868.881897 382.008820,870.678894 379.534607,875.927063
	C377.901855,879.390381 375.717438,880.536377 372.125458,880.341553
	C368.304474,880.134277 364.462463,880.331543 360.629730,880.318909
	C354.998199,880.300293 354.276886,879.223267 356.165558,873.736633
	C360.389587,861.465698 371.891632,853.433105 386.204895,852.792114
	C388.034515,852.710144 389.870758,852.749817 391.703552,852.769226
	C409.001495,852.952148 419.852448,862.946960 421.163239,880.283508
	C422.219055,894.248108 421.928192,908.254272 421.904541,922.249573
	C421.897308,926.539001 420.086273,928.282959 415.807800,927.954651
	C412.326080,927.687500 408.811310,927.886292 405.316040,927.752197
	C399.522125,927.529846 399.072662,926.986816 399.777710,921.302307
	C399.919861,920.156433 400.317352,919.042175 400.676331,917.571655
M395.525635,895.866455
	C394.390472,896.096436 393.236389,896.258484 392.123627,896.568787
	C388.322205,897.628906 384.194702,897.225098 380.604340,899.271484
	C376.710907,901.490723 375.370209,904.837952 376.724304,908.927124
	C377.989777,912.748779 381.336914,913.369080 384.875702,912.886597
	C391.162994,912.029358 398.123108,903.252625 397.578552,896.964722
	C397.514008,896.219055 396.937378,895.872681 395.525635,895.866455
z"/>
    <path fill="#ffffff" opacity="1.000000" stroke="none"
        d="
M575.013611,902.640503
	C579.096985,902.919983 582.790833,901.998779 586.284607,903.355164
	C586.200562,913.566467 577.319458,924.272339 565.936096,928.055054
	C541.296570,936.242737 518.304260,919.886658 517.645386,893.915527
	C517.337952,881.799133 519.330383,870.478394 528.618042,861.950317
	C540.100952,851.406555 553.721558,850.194885 567.776184,855.449524
	C581.323608,860.514526 587.387695,871.630615 588.077454,885.427246
	C588.809937,900.077576 588.285156,897.083313 577.057922,897.266357
	C566.566650,897.437439 556.069519,897.392273 545.576965,897.269714
	C541.463013,897.221680 540.560364,898.772156 542.049927,902.445435
	C543.972046,907.185364 547.305908,910.116577 552.376038,910.766357
	C557.118835,911.374268 560.767700,909.663818 563.199524,905.323059
	C565.928467,900.452087 570.727844,903.479797 575.013611,902.640503
M544.355286,882.832886
	C549.832764,882.834656 555.311035,882.778137 560.787354,882.857788
	C564.732483,882.915161 565.341064,881.117920 563.975037,877.822754
	C561.951172,872.940491 557.955994,870.722717 551.877869,871.262268
	C546.984497,871.696716 543.046326,875.165039 542.049683,879.805298
	C541.728027,881.302673 541.743103,882.462646 544.355286,882.832886
z"/>
    <path fill="#ffffff" opacity="1.000000" stroke="none"
        d="
M670.740173,888.187866
	C670.690918,889.938721 670.488586,891.264221 670.506775,892.586731
	C670.556824,896.230896 668.797913,897.414001 665.229126,897.367432
	C653.243103,897.211121 641.253662,897.301025 629.265686,897.339294
	C627.472595,897.345032 625.596375,896.928406 623.929138,897.975769
	C623.599060,903.311829 626.985962,908.421753 632.039185,910.250305
	C637.217102,912.123962 642.073486,910.714600 645.028381,905.844177
	C646.570740,903.301941 648.352173,902.542114 651.099487,902.603638
	C656.876282,902.732971 662.657959,902.642883 669.114197,902.642883
	C667.509888,912.740234 662.893860,919.911804 655.092773,924.799744
	C637.563477,935.782959 605.039307,930.546387 600.599976,899.557922
	C598.891907,887.634888 599.928955,876.225586 607.127258,866.168396
	C615.423340,854.577515 631.456787,849.868652 646.632385,854.173157
	C660.118408,857.998474 669.086731,869.247681 670.259460,883.792053
	C670.366333,885.117981 670.543274,886.438232 670.740173,888.187866
M643.034546,882.839966
	C647.075012,882.900452 647.356689,880.737183 646.117065,877.651733
	C644.072632,872.563110 639.336975,870.301941 633.038025,871.420837
	C627.784424,872.354065 624.562927,876.401855 624.399292,882.851196
	C630.314209,882.851196 636.226624,882.851196 643.034546,882.839966
z"/>
    <path fill="#ffffff" opacity="1.000000" stroke="none"
        d="
M451.063232,900.683533
	C451.166992,892.564575 451.154968,884.901489 451.435913,877.249146
	C451.542145,874.355103 450.488068,873.224915 447.733551,873.391418
	C447.401733,873.411438 447.061768,873.428528 446.735077,873.381409
	C443.384125,872.897339 438.674591,875.162781 436.924866,871.963806
	C434.550720,867.623230 435.798798,862.208374 436.355957,857.260803
	C436.586914,855.210327 438.358887,854.802307 440.142853,854.801392
	C449.971466,854.796265 459.800201,854.833740 469.628601,854.789307
	C472.492889,854.776367 473.411102,856.257446 473.329926,858.866638
	C473.119354,865.636475 474.223785,872.516968 470.750427,880.260193
	C473.245972,878.170227 473.442322,876.405090 474.042267,874.866089
	C478.889282,862.432312 491.543274,853.833191 504.787628,853.776794
	C507.698303,853.764404 509.204834,854.736023 509.195557,857.735779
	C509.181152,862.400085 509.138947,867.065796 509.234253,871.728333
	C509.299896,874.941345 507.781525,875.983887 504.684235,876.187012
	C486.915253,877.352661 478.502014,884.755859 474.910034,902.105896
	C473.722687,907.841125 474.464813,908.749878 480.503754,908.823303
	C483.835083,908.863770 487.167511,908.814941 490.498871,908.854553
	C491.658508,908.868286 493.259308,908.568481 493.904236,909.192078
	C498.571625,913.704651 495.654694,919.472656 496.051025,924.676819
	C496.306976,928.037659 493.218567,927.840393 490.938293,927.850830
	C478.277649,927.908569 465.616669,927.884766 452.955780,927.889587
	C448.457855,927.891296 443.958496,927.826660 439.462402,927.918457
	C435.546814,927.998352 433.825409,926.449402 433.780945,922.296265
	C433.640411,909.180115 433.518219,908.881775 446.375519,908.946045
	C453.302979,908.980774 450.821136,904.509705 451.063232,900.683533
z"/>
    <path fill="#ffffff" opacity="1.000000" stroke="none"
        d="
M695.590576,775.745850
	C690.634277,779.196655 685.280945,780.318176 679.799805,781.034607
	C676.525391,781.462524 674.721252,780.260864 674.760071,776.694763
	C674.830750,770.202881 674.820251,763.709045 674.743896,757.217102
	C674.708984,754.247192 676.140686,752.977173 678.975281,752.940125
	C681.471497,752.907593 683.973877,752.923584 686.461731,752.749512
	C694.776978,752.167847 698.563538,748.388550 698.664368,740.064636
	C698.841675,725.416138 698.778992,710.764832 698.827942,696.114685
	C698.847534,690.260681 702.779358,687.719116 708.269836,689.920898
	C710.289185,690.730652 710.213074,692.424805 710.228149,694.072205
	C710.275269,699.232849 710.233887,704.394226 710.284424,709.554810
	C710.342285,715.459656 711.467102,716.706848 717.181641,716.833069
	C722.506165,716.950684 727.837708,716.964111 733.161743,716.837708
	C738.844604,716.702881 740.450623,715.041321 740.563293,709.193115
	C740.675598,703.368469 740.619202,697.539490 740.565186,691.713074
	C740.527039,687.593079 743.813477,688.641663 745.972168,688.354187
	C748.197632,688.057800 751.291321,687.744568 751.212036,691.183350
	C750.899231,704.756409 753.068420,718.497803 748.471802,731.804565
	C744.687988,742.758362 738.867188,747.095825 727.381531,747.170715
	C725.383789,747.183777 723.385010,747.213745 721.388306,747.167908
	C713.618347,746.989502 711.895264,745.565491 710.475159,738.377869
	C708.925476,751.938782 708.044434,765.932068 695.590576,775.745850
z"/>
    <path fill="#ffffff" opacity="1.000000" stroke="none"
        d="
M325.676544,673.340576
	C322.169525,670.986877 320.912933,674.096680 319.312500,675.628601
	C312.183472,682.452148 313.705811,683.270691 306.053345,675.490295
	C297.954620,667.256104 297.974213,667.236938 306.191345,659.083435
	C306.545654,658.731934 306.896759,658.377258 307.247681,658.022278
	C312.801483,652.405029 312.801392,652.404968 318.481445,657.976685
	C324.003723,663.393616 324.003754,663.393616 329.500092,657.803589
	C334.595245,652.621582 334.595245,652.621582 339.869476,657.870605
	C349.450714,667.406006 349.450684,667.406006 340.217987,676.679443
	C334.632904,682.289185 334.637878,682.284302 329.172668,676.679626
	C328.128387,675.608704 327.027740,674.592712 325.676544,673.340576
z"/>
    <path fill="#ffffff" opacity="1.000000" stroke="none"
        d="
M650.885254,779.006836
	C648.891846,781.110352 647.154846,781.631714 645.133850,779.564331
	C642.006409,776.364929 638.792480,773.249756 635.600464,770.113892
	C633.919250,768.462097 633.512451,766.874512 635.425537,765.033081
	C638.649231,761.930176 641.795654,758.745911 644.933899,755.555725
	C646.820496,753.637756 648.625671,753.583130 650.463745,755.573120
	C650.575928,755.694519 650.703918,755.801636 650.828125,755.911316
	C662.984863,766.650757 662.984924,766.650696 650.885254,779.006836
z"/>
    <path fill="#ffffff" opacity="1.000000" stroke="none"
        d="
M732.217102,760.215942
	C739.849182,752.810852 738.132812,751.101685 746.695618,759.989319
	C754.690002,768.286926 755.579468,766.099609 746.763611,774.996582
	C738.014709,783.825989 739.907410,782.185425 732.511597,775.037415
	C732.392395,774.922119 732.277649,774.802185 732.158813,774.686401
	C723.663147,766.405396 724.432068,768.201111 732.217102,760.215942
z"/>
    <path fill="#ffffff" opacity="1.000000" stroke="none"
        d="
M609.012268,763.137573
	C611.614441,760.531677 614.005127,758.229919 616.281555,755.820312
	C618.340515,753.640930 620.119263,753.790344 622.131775,755.943909
	C624.958923,758.969116 627.914917,761.877930 630.894104,764.755371
	C632.775391,766.572388 633.198059,768.300171 631.149292,770.253418
	C627.790771,773.455322 624.448975,776.674866 621.116699,779.903992
	C619.367676,781.599060 617.902588,781.006592 616.439514,779.470825
	C613.810181,776.710571 611.274902,773.838257 608.443359,771.299255
	C605.189331,768.381409 605.020630,765.890503 609.012268,763.137573
z"/>
</svg>